<?xml version="1.0" standalone="no"?>
<!DOCTYPE svg PUBLIC "-//W3C//DTD SVG 20010904//EN"
 "http://www.w3.org/TR/2001/REC-SVG-20010904/DTD/svg10.dtd">
<svg version="1.0" xmlns="http://www.w3.org/2000/svg"
 width="1024.000000pt" height="1024.000000pt" viewBox="0 0 1024.000000 1024.000000"
 preserveAspectRatio="xMidYMid meet">

<g transform="translate(0.000000,1024.000000) scale(0.100000,-0.100000)"
fill="#000000" stroke="none">
<path d="M5902 8952 c-10 -10 -30 -74 -50 -160 l-34 -142 -99 92 c-107 100
-131 115 -173 104 -29 -7 -66 -58 -66 -91 0 -13 42 -61 115 -130 63 -61 115
-114 115 -117 0 -3 -93 -95 -207 -204 -115 -109 -379 -363 -587 -564 -209
-201 -382 -364 -385 -363 -3 0 -49 8 -101 17 -82 14 -102 14 -147 3 -101 -26
-172 -97 -194 -193 -16 -69 6 -141 72 -236 105 -152 198 -295 233 -360 l37
-66 -28 -14 c-39 -19 -56 -57 -42 -97 6 -17 14 -31 17 -31 4 0 15 -7 25 -14
27 -21 11 -41 -131 -163 -462 -399 -770 -867 -859 -1308 -22 -110 -25 -406 -5
-500 80 -372 319 -667 662 -816 259 -112 544 -165 945 -176 416 -11 779 36
1045 134 379 140 642 413 735 762 135 513 -38 1042 -520 1592 -83 94 -186 193
-405 389 -73 65 -81 75 -65 85 61 35 71 80 27 124 -15 15 -33 30 -40 32 -9 3
2 35 38 108 43 88 64 117 134 187 52 52 86 94 89 111 3 16 3 73 1 128 -2 55
-9 208 -14 340 -11 256 -33 547 -55 710 -7 55 -11 102 -9 104 3 3 12 -6 21
-20 36 -50 62 -69 96 -69 51 0 87 33 87 80 0 33 -11 51 -81 134 -45 54 -80 98
-78 100 2 1 56 18 119 36 149 44 175 55 194 82 24 34 19 66 -13 99 -39 38 -60
37 -206 -10 -66 -21 -121 -38 -123 -36 -2 1 11 60 28 131 33 137 32 162 -2
194 -28 26 -91 27 -116 2z m-93 -809 c6 -43 13 -106 17 -140 l6 -62 -33 -5
c-19 -3 -68 -8 -109 -11 -41 -3 -142 -17 -224 -31 -82 -13 -150 -23 -151 -22
-2 2 71 73 160 158 157 149 166 155 227 171 99 27 94 29 107 -58z m45 -500 c4
-65 9 -128 12 -140 4 -23 3 -23 -93 -23 -195 0 -655 -68 -906 -133 -53 -14
-102 -13 -95 2 2 3 69 71 150 149 l147 144 143 29 c198 40 476 80 605 87 l31
2 6 -117z m19 -400 c4 -38 7 -100 7 -139 l0 -71 -67 -7 c-167 -17 -221 -18
-259 -6 -22 7 -123 52 -225 101 -103 49 -192 89 -198 89 -6 0 -11 4 -11 9 0 8
168 38 353 62 82 10 257 24 353 28 l41 1 6 -67z m-1408 -48 c33 -8 88 -15 121
-15 133 0 346 -72 654 -221 215 -103 269 -122 388 -134 39 -4 72 -9 72 -12 0
-2 -25 -57 -56 -123 l-56 -118 -201 -5 c-111 -3 -328 -5 -482 -4 l-280 2 -29
55 c-88 171 -155 278 -287 459 -44 61 -48 82 -19 111 24 24 87 26 175 5z
m1158 -903 c32 -47 90 -107 181 -185 231 -202 445 -437 564 -620 65 -100 162
-291 197 -387 64 -179 87 -345 75 -526 -19 -265 -97 -443 -266 -605 -123 -117
-241 -185 -433 -249 -246 -82 -534 -116 -914 -107 -332 8 -531 37 -754 112
-361 121 -591 359 -665 689 -27 122 -29 345 -5 468 54 271 211 576 430 833 88
104 288 305 404 406 65 57 118 114 148 159 l46 69 62 4 c34 2 247 4 473 5
l410 2 47 -68z"/>
<path d="M5074 5890 c-40 -16 -64 -59 -64 -114 l0 -52 -69 -22 c-225 -73 -354
-277 -311 -494 16 -83 42 -131 104 -192 63 -63 144 -103 317 -156 246 -75 298
-112 307 -215 8 -93 -31 -165 -112 -207 -60 -32 -182 -31 -249 1 -57 28 -113
90 -129 144 -16 54 -32 59 -150 49 -143 -13 -154 -37 -86 -180 53 -113 173
-208 318 -253 l55 -17 5 -65 c6 -74 23 -100 77 -118 28 -9 43 -8 79 6 53 20
67 42 74 119 l5 58 55 18 c90 27 152 64 207 122 94 100 129 201 121 354 -12
214 -110 306 -433 403 -158 48 -226 81 -262 127 -70 92 -22 229 94 268 58 20
96 20 159 1 64 -19 108 -57 143 -125 l28 -55 94 2 c52 2 104 5 116 8 70 16 14
194 -94 296 -50 47 -142 97 -205 113 -25 6 -28 11 -28 52 0 25 -7 59 -16 75
-24 47 -96 71 -150 49z"/>
<path d="M4004 8540 c-30 -12 -54 -49 -54 -82 0 -42 37 -74 115 -97 113 -33
203 -100 248 -185 18 -34 22 -58 22 -140 1 -95 2 -99 28 -122 45 -39 114 -27
137 24 32 71 15 217 -37 321 -37 72 -121 162 -193 206 -97 59 -221 94 -266 75z"/>
<path d="M4943 8425 c-81 -35 -83 -169 -3 -210 55 -29 130 -12 164 37 21 29
20 107 0 137 -19 26 -71 51 -106 51 -13 -1 -37 -7 -55 -15z"/>
<path d="M3852 7634 c-59 -41 -69 -124 -21 -178 76 -88 209 -37 209 79 0 47
-19 79 -60 100 -38 19 -100 19 -128 -1z"/>
<path d="M6500 7612 c-39 -6 -162 -137 -198 -212 -44 -90 -60 -191 -43 -272
33 -162 153 -290 232 -247 62 33 66 91 10 152 -56 61 -75 103 -75 167 -1 77
37 149 119 229 53 52 65 69 65 95 0 58 -49 97 -110 88z"/>
<path d="M8145 2968 c-3 -7 -4 -283 -3 -613 l3 -600 105 0 105 0 5 265 c5 250
6 267 27 307 32 59 75 86 142 91 66 4 110 -18 138 -70 16 -29 18 -66 21 -316
l3 -283 107 3 107 3 0 320 0 320 -33 67 c-39 80 -96 133 -166 153 -110 33
-220 10 -297 -62 l-49 -45 -2 233 -3 234 -103 3 c-76 2 -104 -1 -107 -10z"/>
<path d="M5800 2944 c-193 -42 -352 -196 -415 -404 -25 -83 -30 -259 -11 -350
48 -229 215 -397 441 -445 86 -18 128 -18 226 -1 98 18 194 64 261 125 60 55
118 144 121 186 2 26 -2 29 -88 56 -49 16 -95 29 -102 29 -6 0 -25 -24 -42
-54 -52 -92 -133 -136 -251 -136 -115 0 -204 45 -264 133 -48 71 -67 127 -73
222 -12 191 59 344 192 412 61 32 172 42 240 23 58 -16 120 -70 151 -131 13
-27 28 -49 32 -49 18 0 188 52 196 60 6 6 -5 39 -28 84 -97 197 -336 295 -586
240z"/>
<path d="M1425 2928 c-3 -7 -4 -274 -3 -593 l3 -580 110 0 110 0 3 198 2 197
118 0 c186 0 302 35 391 115 85 77 134 231 113 353 -28 161 -140 277 -300 311
-77 16 -541 15 -547 -1z m496 -199 c19 -7 47 -23 63 -38 105 -95 56 -292 -82
-331 -20 -5 -85 -10 -144 -10 l-108 0 0 195 0 195 119 0 c65 0 133 -5 152 -11z"/>
<path d="M3977 2854 c-4 -4 -7 -60 -7 -125 l0 -118 -87 -3 -88 -3 0 -85 0 -85
77 -3 76 -3 4 -257 c3 -219 6 -263 21 -297 41 -93 112 -130 247 -130 97 0 181
25 179 53 0 9 -8 44 -17 77 l-17 60 -62 -3 c-123 -7 -133 15 -133 293 l0 205
95 0 c69 0 95 3 96 13 0 6 1 46 1 87 l0 75 -96 3 -95 3 -3 122 -3 122 -90 3
c-50 1 -94 0 -98 -4z"/>
<path d="M2594 2620 c-73 -11 -117 -27 -163 -61 -39 -28 -101 -102 -101 -121
0 -4 38 -27 85 -50 l85 -42 32 38 c55 67 143 85 224 45 46 -22 84 -81 84 -131
l0 -25 -152 -6 c-164 -6 -224 -19 -288 -61 -90 -59 -127 -205 -80 -314 47
-108 145 -158 299 -150 96 5 146 25 196 78 l30 32 5 -49 5 -48 98 -3 97 -3 0
309 c0 351 -5 380 -72 457 -49 55 -123 92 -213 105 -78 11 -98 11 -171 0z
m246 -527 c-1 -130 -139 -227 -254 -179 -43 18 -66 51 -66 98 0 80 69 117 223
118 l97 0 0 -37z"/>
<path d="M3555 2614 c-44 -16 -98 -64 -123 -109 l-17 -30 -5 65 -5 65 -100 0
-100 0 0 -425 0 -425 105 0 105 0 5 255 c5 237 7 258 27 295 43 81 105 115
206 115 l64 0 7 93 c5 80 4 94 -11 105 -22 16 -108 14 -158 -4z"/>
<path d="M6794 2620 c-73 -11 -117 -27 -163 -61 -38 -27 -101 -102 -101 -120
0 -8 144 -89 160 -89 6 0 25 16 43 36 57 65 142 82 225 44 33 -15 47 -29 62
-62 11 -24 20 -55 20 -69 l0 -26 -142 -6 c-79 -2 -167 -10 -196 -17 -123 -28
-202 -123 -202 -243 0 -88 18 -135 70 -188 64 -64 124 -83 244 -77 101 5 149
23 201 78 l30 32 5 -49 5 -48 100 0 100 0 3 270 c3 366 -9 428 -99 509 -53 49
-109 73 -195 86 -77 11 -97 11 -170 0z m246 -527 c-1 -133 -152 -234 -263
-176 -44 22 -56 41 -57 88 0 88 63 124 218 125 l102 0 0 -37z"/>
<path d="M7620 2621 c-151 -28 -240 -122 -240 -253 0 -137 74 -211 260 -258
127 -32 180 -64 180 -107 0 -57 -48 -93 -125 -93 -63 0 -105 20 -148 70 l-36
43 -86 -39 c-47 -21 -85 -43 -85 -49 0 -7 17 -36 38 -66 30 -42 52 -61 106
-89 62 -31 77 -35 171 -38 119 -5 193 12 262 59 108 74 143 199 89 315 -37 80
-101 117 -291 169 -132 36 -164 83 -99 143 19 17 37 22 75 22 57 0 81 -10 126
-52 l32 -31 80 38 c45 21 81 44 81 51 0 31 -68 100 -130 131 -72 36 -175 49
-260 34z"/>
<path d="M4440 2600 c0 -5 75 -197 166 -425 l167 -415 -32 -65 c-37 -76 -66
-95 -140 -95 -49 0 -50 -1 -56 -32 -3 -18 -6 -57 -8 -87 -2 -51 0 -55 23 -62
44 -12 145 -10 196 6 69 20 124 71 166 152 20 37 92 219 161 403 70 184 151
398 181 475 29 77 50 144 47 148 -4 4 -56 6 -116 5 l-108 -3 -97 -288 c-54
-158 -100 -290 -103 -293 -2 -2 -49 127 -103 288 l-99 293 -122 3 c-80 2 -123
-1 -123 -8z"/>
</g>
</svg>
